<?xml version="1.0" encoding="UTF-8" standalone="no"?>
<svg
   xmlns:dc="http://purl.org/dc/elements/1.1/"
   xmlns:cc="http://creativecommons.org/ns#"
   xmlns:rdf="http://www.w3.org/1999/02/22-rdf-syntax-ns#"
   xmlns:svg="http://www.w3.org/2000/svg"
   xmlns="http://www.w3.org/2000/svg"
   xmlns:sodipodi="http://sodipodi.sourceforge.net/DTD/sodipodi-0.dtd"
   xmlns:inkscape="http://www.inkscape.org/namespaces/inkscape"
   width="210mm"
   height="297mm"
   viewBox="0 0 210 297"
   version="1.1"
   id="svg8"
   inkscape:version="1.0.1 (3bc2e813f5, 2020-09-07)"
   sodipodi:docname="Ikona.svg">
  <defs
     id="defs2">
    <inkscape:perspective
       sodipodi:type="inkscape:persp3d"
       inkscape:vp_x="-1.912645 : 146.93975 : 1"
       inkscape:vp_y="0 : 1010.4517 : 0"
       inkscape:vp_z="215.90094 : 146.93975 : 1"
       inkscape:persp3d-origin="106.99415 : 96.922389 : 1"
       id="perspective10" />
  </defs>
  <sodipodi:namedview
     id="base"
     pagecolor="#ffffff"
     bordercolor="#666666"
     borderopacity="1.0"
     inkscape:pageopacity="0.0"
     inkscape:pageshadow="2"
     inkscape:zoom="0.35"
     inkscape:cx="400"
     inkscape:cy="560"
     inkscape:document-units="mm"
     inkscape:current-layer="layer1"
     inkscape:document-rotation="0"
     showgrid="false"
     inkscape:window-width="1600"
     inkscape:window-height="850"
     inkscape:window-x="0"
     inkscape:window-y="0"
     inkscape:window-maximized="0" />
  <metadata
     id="metadata5">
    <rdf:RDF>
      <cc:Work
         rdf:about="">
        <dc:format>image/svg+xml</dc:format>
        <dc:type
           rdf:resource="http://purl.org/dc/dcmitype/StillImage" />
        <dc:title></dc:title>
      </cc:Work>
    </rdf:RDF>
  </metadata>
  <g
     inkscape:label="Warstwa 1"
     inkscape:groupmode="layer"
     id="layer1">
    <g
       sodipodi:type="inkscape:box3d"
       id="g12"
       style="fill-rule:evenodd;stroke:none;stroke-linejoin:round"
       inkscape:perspectiveID="#perspective10"
       inkscape:corner0="1.0426124 : 0.130475 : 0 : 1"
       inkscape:corner7="0.052254856 : -0.021740157 : 0.98203473 : 1">
      <path
         sodipodi:type="inkscape:box3dside"
         id="path24"
         style="fill:#e9e9ff;fill-rule:evenodd;stroke:none;stroke-width:1.02374;stroke-linejoin:round"
         inkscape:box3dsidetype="11"
         d="m 104.81296,123.00873 51.95746,-13.16955 v 75.60676 l -51.95746,-11.5863 z"
         points="156.77042,109.83918 156.77042,185.44594 104.81296,173.85964 104.81296,123.00873 " />
      <path
         sodipodi:type="inkscape:box3dside"
         id="path14"
         style="fill:#353564;fill-rule:evenodd;stroke:none;stroke-width:1.02374;stroke-linejoin:round"
         inkscape:box3dsidetype="6"
         d="m 51.404762,110.00306 v 75.2987 l 53.408198,-11.44212 v -50.85091 z"
         points="51.404762,185.30176 104.81296,173.85964 104.81296,123.00873 51.404762,110.00306 " />
      <path
         sodipodi:type="inkscape:box3dside"
         id="path22"
         style="fill:#afafde;fill-rule:evenodd;stroke:none;stroke-width:1.02374;stroke-linejoin:round"
         inkscape:box3dsidetype="13"
         d="m 51.404762,185.30176 50.181088,33.16848 55.18457,-33.0243 -51.95746,-11.5863 z"
         points="101.58585,218.47024 156.77042,185.44594 104.81296,173.85964 51.404762,185.30176 " />
      <path
         sodipodi:type="inkscape:box3dside"
         id="path16"
         style="fill:#4d4d9f;fill-rule:evenodd;stroke:none;stroke-width:1.02374;stroke-linejoin:round"
         inkscape:box3dsidetype="5"
         d="m 51.404762,110.00306 50.181088,-37.700891 55.18457,37.537011 -51.95746,13.16955 z"
         points="101.58585,72.302169 156.77042,109.83918 104.81296,123.00873 51.404762,110.00306 " />
      <path
         sodipodi:type="inkscape:box3dside"
         id="path20"
         style="fill:#d7d7ff;fill-rule:evenodd;stroke:none;stroke-width:1.02374;stroke-linejoin:round"
         inkscape:box3dsidetype="14"
         d="M 101.58585,72.302169 V 218.47024 l 55.18457,-33.0243 v -75.60676 z"
         points="101.58585,218.47024 156.77042,185.44594 156.77042,109.83918 101.58585,72.302169 " />
      <path
         sodipodi:type="inkscape:box3dside"
         id="path18"
         style="fill:#8686bf;fill-rule:evenodd;stroke:none;stroke-width:1.02374;stroke-linejoin:round"
         inkscape:box3dsidetype="3"
         d="M 51.404762,110.00306 101.58585,72.302169 V 218.47024 L 51.404762,185.30176 Z"
         points="101.58585,72.302169 101.58585,218.47024 51.404762,185.30176 51.404762,110.00306 " />
    </g>
    <text
       xml:space="preserve"
       style="font-style:normal;font-weight:normal;font-size:13.9593px;line-height:1.25;font-family:sans-serif;fill:#000000;fill-opacity:1;stroke:none;stroke-width:0.348983"
       x="55.162018"
       y="141.76424"
       id="text28"
       transform="scale(0.95718027,1.0447353)"><tspan
         sodipodi:role="line"
         id="tspan26"
         x="55.162018"
         y="141.76424"
         style="stroke-width:0.348983">w7676</tspan></text>
    <text
       xml:space="preserve"
       style="font-style:normal;font-weight:normal;font-size:13.9539px;line-height:1.25;font-family:sans-serif;fill:#000000;fill-opacity:1;stroke:none;stroke-width:0.348849"
       x="125.7237"
       y="125.86407"
       id="text32"
       transform="scale(0.84140632,1.1884864)"><tspan
         sodipodi:role="line"
         id="tspan30"
         x="125.7237"
         y="125.86407"
         style="stroke-width:0.348849">w7676</tspan></text>
    <path
       sodipodi:type="spiral"
       style="fill:none;fill-rule:evenodd;stroke:#000000;stroke-width:0.264583"
       id="path36"
       sodipodi:cx="75.595238"
       sodipodi:cy="170.08928"
       sodipodi:expansion="1"
       sodipodi:revolution="3"
       sodipodi:radius="16.036171"
       sodipodi:argument="-20.56225"
       sodipodi:t0="0"
       d="m 75.595238,170.08928 c -0.113708,-0.79595 1.016821,-0.54597 1.322916,-0.18899 0.829498,0.96739 0.03342,2.36214 -0.944938,2.83482 -1.75005,0.84552 -3.725989,-0.38362 -4.346728,-2.07886 -0.910959,-2.48784 0.800086,-5.11302 3.212793,-5.85864 3.215758,-0.99379 6.508875,1.21553 7.370539,4.34672 1.084316,3.94029 -1.630288,7.9091 -5.480647,8.88245 -4.663301,1.17885 -9.311814,-2.04462 -10.39435,-6.61458 -1.275733,-5.38553 2.458678,-10.71608 7.748501,-11.90625 6.10731,-1.37411 12.121388,2.87255 13.418162,8.88243 1.473477,6.8288 -3.28631,13.52742 -10.016356,14.93006 -7.550096,1.57356 -14.933986,-3.69997 -16.441973,-11.15028 -1.674152,-8.27126 4.113567,-16.34095 12.28421,-17.95388" />
    <path
       sodipodi:type="spiral"
       style="fill:none;fill-rule:evenodd;stroke:#000000;stroke-width:0.264583"
       id="path38"
       sodipodi:cx="130.0238"
       sodipodi:cy="183.69643"
       sodipodi:expansion="1"
       sodipodi:revolution="3"
       sodipodi:radius="20.128784"
       sodipodi:argument="-21.01877"
       sodipodi:t0="0"
       d="m 130.0238,183.69643 c -0.56853,-0.83385 0.84352,-1.17777 1.38592,-0.94494 1.46985,0.63094 1.3447,2.64285 0.50396,3.71676 -1.50387,1.92098 -4.41022,1.6295 -6.04762,0.063 -2.40294,-2.2989 -1.92776,-6.20337 0.37799,-8.37847 3.07319,-2.89906 8.00593,-2.23206 10.70932,0.81896 3.40195,3.8394 2.53956,9.81302 -1.25993,13.04018 -4.6017,3.90852 -11.62267,2.84891 -15.37103,-1.70091 -4.41731,-5.3618 -3.15943,-13.43393 2.14188,-17.70188 6.12057,-4.92753 15.24625,-3.47073 20.03274,2.58285 5.4387,6.87847 3.78256,17.05933 -3.02383,22.36359 -7.63575,5.95058 -18.87295,4.09481 -24.69445,-3.4648 -6.46295,-8.3926 -4.40733,-20.68698 3.90578,-27.0253" />
    <path
       style="fill:#ff0000;stroke-width:2.85714"
       d="m 287.88969,760.65829 -93.53888,-62.08686 0.13558,-141.42857 0.13558,-141.42857 34.83187,-25.01899 c 19.15753,-13.76045 39.18467,-28.86759 44.50476,-33.57143 5.32008,-4.70384 10.46294,-8.57298 11.42857,-8.59808 0.96563,-0.0251 6.25569,-3.86851 11.75569,-8.54091 5.5,-4.67241 11.55287,-9.79473 13.45084,-11.38294 1.89796,-1.58821 4.83117,-2.88765 6.51824,-2.88765 1.68707,0 3.80746,-1.92858 4.71199,-4.28572 0.90452,-2.35714 3.47594,-4.28571 5.71428,-4.28571 2.23834,0 4.80976,-1.92857 5.71429,-4.28572 0.90452,-2.35714 3.14985,-4.28571 4.98964,-4.28571 1.83978,0 5.35924,-2.25 7.82102,-5 2.46178,-2.75 7.36744,-6.92857 10.90146,-9.28572 6.02598,-4.01924 14.06464,-10.21451 22.32109,-17.20254 2.85334,-2.41498 3.57143,52.14955 3.57143,271.37561 0,150.91911 -0.32143,274.37316 -0.71428,274.34236 -0.39286,-0.0308 -42.80678,-27.99511 -94.25317,-62.14285 z M 300,691.5354 c 0,-1.16883 -6.20185,-1.52923 -13.78189,-0.80089 -36.21025,3.47935 -63.98859,-34.39422 -50.7162,-69.14748 5.30909,-13.90166 23.1188,-31.84346 34.42606,-34.6814 3.96819,-0.99594 7.21489,-2.9744 7.21489,-4.39657 0,-4.5106 -21.04656,5.98923 -31.05498,15.49288 -12.43065,11.80375 -17.51645,24.00403 -17.51645,42.02012 0,26.15771 17.31432,48.56331 41.39437,53.5664 C 282.09154,696.1078 300,694.88363 300,691.5354 Z m 19.10157,-12.03343 c 3.63699,-3.4168 6.61272,-7.9168 6.61272,-10 0,-2.08323 1.20693,-3.78768 2.68207,-3.78768 1.47515,0 3.54743,-5.77055 4.60508,-12.82346 1.55043,-10.33906 0.61565,-15.43054 -4.82494,-26.28009 -8.37127,-16.69385 -18.09149,-23.96288 -34.5195,-25.81457 -13.86882,-1.5632 -26.37246,3.26194 -36.43128,14.0588 -10.11025,10.85209 -6.25115,11.9344 5.31031,1.48932 14.79013,-13.362 25.16848,-15.40186 41.53251,-8.16329 15.92381,7.04386 24.47745,19.96811 24.49221,37.00683 0.012,13.88128 -3.08936,21.26066 -13.73012,32.66931 -8.67257,9.29843 -5.27057,10.6086 4.27094,1.64483 z m -43.68159,-8.5496 c -0.80933,-1.30951 -2.68134,-2.38094 -4.16003,-2.38094 -1.47869,0 -2.68852,1.07143 -2.68852,2.38094 0,1.30954 1.87201,2.38097 4.16003,2.38097 2.28802,0 3.49785,-1.07143 2.68852,-2.38097 z m 34.58085,-12.78626 c 4.97855,-10.49151 5.46025,-17.10245 1.42774,-19.59468 -1.6951,-1.04763 -2.85714,2.26663 -2.85714,8.14883 0,7.46725 -2.07671,11.66205 -8.413,16.99371 -4.62716,3.89349 -7.70283,7.78926 -6.83483,8.65726 2.92653,2.92651 12.3611,-5.10952 16.67723,-14.20512 z m -53.06471,-1.42848 c -3.55033,-6.95923 -5.54346,-15.19766 -4.83862,-20 0.6592,-4.49143 0.13551,-8.1662 -1.16377,-8.1662 -4.59368,0 -2.26314,21.55617 3.32067,30.71428 8.05516,13.21143 9.85107,11.505 2.68172,-2.54808 z m 35.92102,-9.55563 c 0,-3.53606 -2.15385,-5.94017 -5.71428,-6.3782 -3.14286,-0.38666 -4.10715,0.0229 -2.14286,0.91326 5.43413,2.45925 4.26063,9.71151 -1.57143,9.71151 -12.81521,0 -15.80124,-13.73806 -4.85714,-22.34668 7.53832,-5.92966 9.02585,-9.08189 4.28571,-9.08189 -5.73105,0 -14.28571,11.63434 -14.28571,19.42857 0,10.57903 5.19692,15.30306 15.70023,14.27166 6.37802,-0.62632 8.58548,-2.30226 8.58548,-6.51823 z m 15.71429,-15.75343 c 0,-1.57143 -1.3616,-2.85714 -3.02576,-2.85714 -1.66417,0 -2.23115,1.28571 -1.25996,2.85714 0.9712,1.57143 2.33279,2.85714 3.02577,2.85714 0.69297,0 1.25995,-1.28571 1.25995,-2.85714 z m -10.3212,-72.26897 c 3.5518,-2.59714 4.77719,-6.63605 4.11752,-13.57143 -0.84315,-8.86427 -1.90787,-9.96686 -10.41286,-10.78321 -7.85355,-0.75383 -8.8931,-1.6089 -6.07873,-5 1.86722,-2.24987 5.80895,-4.09067 8.7594,-4.09067 2.95044,0 5.36444,-1.92858 5.36444,-4.28572 0,-5.9829 -9.485,-5.34691 -17.54062,1.17614 -8.97263,7.26559 -9.72447,29.96307 -1.19901,36.19703 6.86398,5.01909 10.51024,5.09589 16.98986,0.35786 z m 64.60691,-2.01674 c 10.12945,-10.12945 5.70127,-22.85715 -7.95238,-22.85715 -9.41179,0 -6.55327,-6.89652 3.34211,-8.06326 8.97142,-1.0578 8.65663,-7.19853 -0.43783,-8.541 C 347.94373,516.22519 340,526.72657 340,541.22449 c 0,19.72314 11.23087,27.54465 22.85714,15.91837 z m -145.303,-5 3.12699,-7.85715 2.75467,7.85715 c 3.59164,10.2444 9.69766,10.04697 11.78325,-0.38097 0.90619,-4.53095 2.492,-11.60238 3.52402,-15.71428 1.41617,-5.64246 0.7958,-7.47618 -2.52927,-7.47618 -2.64273,0 -4.83269,3.14406 -5.47281,7.85714 l -1.06714,7.85714 -3.33764,-7.85714 c -4.15217,-9.77465 -8.52905,-10.07015 -10.87227,-0.73403 -2.01489,8.02797 -6.89251,6.91167 -6.89251,-1.57745 0,-3.18881 -1.9513,-5.54566 -4.5914,-5.54566 -3.01978,0 -3.99565,1.55247 -2.85097,4.53548 0.95724,2.49452 2.54484,9.56595 3.528,15.71429 2.11036,13.19749 8.32925,14.79917 12.89708,3.32166 z m 45.26187,-9.20424 c 12.04105,-23.85317 11.61382,-25.79576 -5.67315,-25.79576 -10.79365,0 -14.28572,1.04762 -14.28572,4.28571 0,2.99654 3.02045,4.28572 10.04113,4.28572 h 10.04113 l -8.65369,17.14285 C 247.57352,556.15392 246.59355,560 249.91774,560 c 2.36954,0 8.13646,-7.62827 12.89827,-17.06138 z m 63.73165,1.2838 c 11.37266,-23.1884 10.63708,-27.07956 -5.11909,-27.07956 -9.52381,0 -12.85714,1.11111 -12.85714,4.28571 0,2.85714 2.85714,4.28572 8.57143,4.28572 4.71428,0 8.57143,0.6856 8.57143,1.52355 0,0.83795 -3.21429,7.86664 -7.14286,15.6193 C 310.33137,559.11811 310.15377,560 315.11909,560 c 2.02979,0 7.17264,-7.09991 11.42857,-15.77758 z"
       id="path42"
       transform="scale(0.26458333)" />
    <path
       style="fill:#ff0000;stroke-width:2.85714"
       d="m 385.71429,549.98011 c 0,-273.41539 0.002,-273.53253 5.74492,-269.61432 3.15971,2.15596 49.39855,33.49135 102.75298,69.63421 l 97.00806,65.71429 0.10417,141.92887 0.10415,141.92887 -20.71428,12.57751 L 550,724.72706 v -24.70483 c 0,-21.41769 -0.91612,-26.04326 -6.88521,-34.76403 -19.04107,-27.81877 -58.24305,-34.02974 -82.17289,-13.01906 -22.47836,19.73626 -24.40277,50.4818 -4.46764,71.37786 8.89411,9.32283 26.34525,14.70486 39.61086,12.21623 30.09362,-5.6456 42.09571,-46.222 19.03702,-64.35997 -10.77935,-8.47906 -30.42786,-7.85586 -39.53773,1.25403 -13.52578,13.52577 -6.13967,38.70128 11.35436,38.70128 8.9011,0 16.46747,-7.56637 15.35614,-15.35614 -1.00763,-7.0628 -11.04334,-8.41754 -13.23573,-1.78672 -1.17539,3.55492 -0.66389,3.66429 2.99967,0.64138 6.25324,-5.15978 9.29435,3.31154 3.32996,9.27594 -6.05379,6.0538 -11.2806,5.46634 -18.33079,-2.06017 -11.05732,-11.8044 -0.3512,-33.34346 16.65529,-33.50789 30.69993,-0.29686 39.88289,44.0896 12.0945,58.45952 -20.71464,10.71197 -45.10814,1.67268 -54.8367,-20.32038 -11.8969,-26.89488 5.86611,-56.93662 37.16164,-62.84977 28.7457,-5.43134 60.19194,22.62895 60.37593,53.87497 0.12731,21.6224 -6.97245,32.18555 -31.16601,46.36926 -24.98429,14.64729 -37.00134,16.282 -55.9141,7.60617 -35.12856,-16.11448 -49.06076,-57.4202 -31.48461,-93.34454 4.15373,-8.48994 10.73011,-17.93597 14.61416,-20.99117 3.88405,-3.05517 5.84112,-6.30937 4.34904,-7.23154 -4.89667,-3.02632 -23.25694,21.99057 -27.92558,38.05011 -11.50792,39.58586 12.48399,85.03157 47.87819,90.69134 6.19678,0.99092 11.85989,2.76117 12.58469,3.93392 0.7248,1.17274 -17.62513,13.43614 -40.77761,27.25197 -23.15248,13.81586 -44.98828,26.97817 -48.52399,29.24963 l -6.42857,4.12988 z m 101.22448,14.10152 c 5.30052,-5.30051 5.95159,-21.47699 1.06123,-26.36734 -1.88571,-1.88572 -5.90029,-3.42858 -8.92127,-3.42858 -4.55845,0 -4.88772,-0.72895 -1.93587,-4.28571 1.95625,-2.35714 5.32797,-4.28571 7.4927,-4.28571 2.16473,0 3.93587,-1.92858 3.93587,-4.28572 0,-4.47764 -7.73214,-5.7125 -13.1437,-2.0991 -9.93362,6.63285 -13.02503,31.81397 -5.26572,42.89193 5.23682,7.47663 10.56913,8.06789 16.77676,1.86023 z m 58.40234,-4.29983 c 5.69646,-10.14895 2.30946,-22.0441 -6.93763,-24.36497 -8.49266,-2.13152 -7.80104,-7.87634 1.10603,-9.18698 7.79466,-1.14694 8.22324,-9.08699 0.49049,-9.08699 -10.77575,0 -17.14286,10.00545 -17.14286,26.93877 0,23.52306 12.99851,32.59968 22.48397,15.70017 z m -129.68489,-3.35323 2.08479,-9.28571 2.69005,9.47981 c 4.82269,16.99527 12.60825,6.18633 13.51661,-18.76553 0.18592,-5.10714 -0.94767,-9.28571 -2.5191,-9.28571 -1.57143,0 -2.85714,2.49555 -2.85714,5.54566 0,7.92051 -5.12655,10.04354 -6.2243,2.57765 -1.45284,-9.88087 -7.09054,-9.25668 -9.49084,1.05079 l -2.18834,9.39733 -1.76255,-8.33572 c -0.9694,-4.58465 -3.5053,-8.91557 -5.63535,-9.62427 -2.88684,-0.9605 -3.45725,0.79796 -2.24056,6.90715 0.89772,4.50763 2.46214,13.01712 3.47649,18.90998 2.26812,13.17677 8.33798,13.95446 11.15024,1.42857 z m 40.36542,-10.34783 c 9.98539,-26.59406 9.49767,-28.93788 -6.02164,-28.93788 -9.52381,0 -12.85714,1.11111 -12.85714,4.28571 0,2.89278 2.89417,4.28572 8.90466,4.28572 10.04888,0 10.04875,0.12365 -0.0263,25.21801 -5.31956,13.24976 -5.51,15.09744 -1.47247,14.28573 2.71889,-0.54663 7.46511,-8.46358 11.47281,-19.13729 z m 56.50447,-0.52991 c 10.20171,-27.52272 10.03395,-28.40797 -5.38325,-28.40797 -9.52381,0 -12.85715,1.11111 -12.85715,4.28571 0,2.85714 2.85715,4.28572 8.57143,4.28572 4.71429,0 8.57143,0.6684 8.57143,1.48534 0,0.81694 -3.21428,9.39575 -7.14286,19.06402 -8.38853,20.64429 -8.19287,19.45064 -3.18817,19.45064 2.28854,0 7.10351,-8.49506 11.42857,-20.16346 z"
       id="path44"
       transform="scale(0.26458333)" />
    <path
       style="fill:#ffff00;stroke-width:2.85714"
       d="m 386.80467,552.25765 c 1.10735,-147.25829 2.51961,-268.24859 3.13836,-268.86734 0.61874,-0.61875 45.55726,28.90102 99.86338,65.59949 l 98.73838,66.72449 0.0281,112.85714 c 0.0154,62.07143 0.84791,125.23588 1.8499,140.36548 l 1.8218,27.50835 -16.61128,10.62611 c -25.16697,16.09912 -24.20474,16.36069 -24.20474,-6.57968 0,-30.17612 -7.17184,-43.89229 -28.57143,-54.643 -24.02072,-12.06755 -48.3309,-8.94635 -65.71428,8.43702 -31.7271,31.72709 -12.05354,82.8842 31.86037,82.84646 15.67878,-0.0143 28.59824,-7.73543 34.79687,-20.79808 10.26975,-21.64189 2.3613,-45.00392 -17.04883,-50.36332 -21.64028,-5.97517 -38.17984,4.45823 -38.17984,24.08446 0,14.18823 6.44134,21.37334 19.16084,21.37334 10.30286,0 15.92538,-5.70431 14.62991,-14.84274 -1.04509,-7.37226 -10.98299,-9.29483 -13.22823,-2.55912 -0.94328,2.82983 0.11846,3.4662 3.57208,2.14092 6.15004,-2.36 4.61916,3.62203 -1.99455,7.79386 -3.49122,2.2022 -6.14041,1.60385 -10.54423,-2.38158 -12.5288,-11.3384 -2.98668,-30.15134 15.29305,-30.15134 7.37541,0 11.54522,2.13823 17.14286,8.79066 23.88208,28.38223 -11.4017,62.88703 -44.38387,43.40397 -4.22438,-2.4954 -10.52582,-9.59931 -14.00321,-15.78649 -14.76018,-26.2622 4.2883,-58.31317 36.49583,-61.40791 30.18454,-2.90034 55.00238,21.01706 55.00238,53.0068 0,18.45646 -8.16291,30.35494 -29.51627,43.02374 -34.7897,20.64046 -66.78622,11.71412 -85.62634,-23.88791 -12.01097,-22.69706 -4.68106,-62.0938 14.83379,-79.72854 7.01907,-6.34283 7.7392,-10.27146 1.88279,-10.27146 -5.42038,0 -16.98063,15.34863 -24.69447,32.78703 -16.63276,37.60114 6.7763,90.82597 43.22524,98.28057 4.81718,0.98523 8.73247,3.07663 8.70066,4.64757 -0.058,2.86297 -82.22764,55.2596 -87.12403,55.55583 -1.56375,0.0946 -1.79988,-106.8224 -0.59099,-267.58478 z M 488,565.14286 c 1.88571,-1.88572 3.42857,-9.07751 3.42857,-15.98177 0,-10.15033 -1.0938,-12.83924 -5.71428,-14.04752 -6.76517,-1.76913 -7.4261,-5.27389 -1.42858,-7.57536 2.35715,-0.90452 4.28572,-3.61351 4.28572,-6.01997 0,-6.79615 -13.26252,-5.37359 -18.40942,1.97463 -5.07162,7.24076 -5.97331,31.17508 -1.49006,39.5521 3.30609,6.17749 14.07914,7.3468 19.32805,2.09789 z m 56.59415,-1.57143 c 6.64592,-8.7549 4.91735,-22.82374 -3.48029,-28.32608 -7.30992,-4.78965 -7.3382,-4.93054 -1.42857,-7.11666 7.99053,-2.95588 7.8629,-10.98583 -0.1746,-10.98583 -11.31278,0 -16.65355,7.99064 -16.65355,24.91637 0,8.50261 1.33095,17.9462 2.95767,20.98574 3.68527,6.886 13.73784,7.1678 18.77934,0.52646 z M 416.14186,561.3446 c 1.45027,-3.77935 2.21015,-3.68285 5.62462,0.71429 3.76688,4.85097 4.14422,4.8298 8.23352,-0.46212 4.16303,-5.38731 6.21992,-33.02534 2.45784,-33.02534 -1.00534,0 -3.53587,2.25 -5.62342,5 -3.6148,4.7619 -3.79987,4.7619 -3.88641,0 -0.11406,-6.27598 -8.23403,-6.5834 -10.60623,-0.40155 -1.62186,4.22651 -1.97274,4.22651 -4.33801,0 -1.41539,-2.52915 -3.96089,-4.59845 -5.65669,-4.59845 -3.02487,0 -1.3686,23.20834 2.34734,32.89194 2.12685,5.54249 9.30359,5.468 11.44744,-0.11877 z m 38.63652,-8.93577 c 3.2371,-7.318 6.54838,-18.24657 7.35839,-24.28571 l 1.47277,-10.98026 H 450.3762 c -9.85821,0 -13.23334,1.09306 -13.23334,4.28571 0,2.35714 2.49555,4.28572 5.54566,4.28572 8.82766,0 9.52902,4.70291 3.21722,21.5727 -7.07001,18.89632 -7.03287,18.4273 -1.45937,18.4273 2.54464,0 6.96368,-5.6908 10.33201,-13.30546 z m 53.18218,6.87688 C 514.89127,545.41387 520,530.41417 520,523.93679 c 0,-6.14731 -1.22371,-6.79393 -12.85714,-6.79393 -9.52381,0 -12.85715,1.11111 -12.85715,4.28571 0,2.35714 1.60715,4.3054 3.57143,4.32947 9.94787,0.12185 11.09436,4.49475 5.13943,19.60252 -3.21954,8.16804 -5.85371,16.0891 -5.85371,17.60235 0,5.2902 7.63386,2.69527 10.8177,-3.6772 z"
       id="path46"
       transform="scale(0.26458333)" />
    <path
       style="fill:#c8b7b7;stroke-width:0.785425"
       d="M 73.816384,200.50725 48.32954,184.8339 48.35682,147.41848 48.3841,110.00306 65.532497,98.28712 c 9.431615,-6.443765 17.82425,-12.226147 18.650295,-12.84974 0.826043,-0.623589 2.30408,-1.644009 3.284526,-2.267601 0.980448,-0.623589 4.228254,-2.927133 7.217349,-5.118983 l 5.434703,-3.985183 0.40807,33.086067 c 0.47569,38.56923 0.01,109.05564 -0.721612,109.03981 -0.276429,-0.006 -11.971678,-7.06389 -25.989442,-15.68424 z m 2.022819,-16.5277 c 3.297618,-0.81846 1.937531,-1.60911 -3.299282,-1.91795 -8.278159,-0.48817 -13.635627,-5.48707 -13.635627,-12.72298 0,-5.34212 4.832845,-11.7151 10.359782,-13.66125 2.019242,-0.71102 2.57423,-2.21196 0.817896,-2.21196 -1.927414,0 -8.44232,4.30665 -10.440897,6.9019 -1.681581,2.18362 -1.960989,3.41593 -1.960989,8.64876 0,5.23951 0.283213,6.48511 2.003042,8.80968 3.59517,4.85932 10.608528,7.53069 16.156075,6.1538 z m 7.667262,-3.86983 c 2.915985,-3.24926 4.203357,-6.75888 3.773832,-10.28818 -1.261269,-10.36356 -13.418052,-14.75346 -21.642846,-7.81537 -1.009973,0.85196 -1.836315,2.04144 -1.836315,2.64327 0,0.91086 0.307732,0.88586 1.836315,-0.1492 7.076611,-4.79184 8.633015,-5.10036 13.68604,-2.71288 3.946733,1.86478 5.697287,4.82091 5.697287,9.62091 0,2.95812 -0.461282,4.15627 -2.415253,6.27344 -1.328388,1.43935 -2.430176,2.87209 -2.448418,3.18389 -0.06256,1.06908 2.162158,0.56701 3.349358,-0.75588 z m -12.360068,-2.45656 c 0,-0.41573 -0.550893,-0.75586 -1.224211,-0.75586 -0.673314,0 -1.224209,0.34013 -1.224209,0.75586 0,0.41572 0.550895,0.75587 1.224209,0.75587 0.673318,0 1.224211,-0.34015 1.224211,-0.75587 z m 8.744803,-2.19565 c 1.868658,-2.56812 2.548885,-6.87475 1.085859,-6.87475 -0.428538,0 -1.01447,1.16167 -1.302072,2.58151 -0.287604,1.41984 -1.406035,3.34991 -2.485401,4.28904 -2.301237,2.00223 -2.53432,3.16855 -0.562946,2.81694 0.769749,-0.13729 2.238799,-1.40303 3.26456,-2.81274 z m -12.825504,1.15416 c 0,-0.15709 -0.550894,-1.50673 -1.224209,-2.99919 -0.673314,-1.49246 -1.224212,-3.74492 -1.224212,-5.00545 0,-2.16413 -1.533934,-3.36632 -1.718759,-1.34705 -0.363933,3.97615 1.616851,9.63732 3.371999,9.63732 0.437351,0 0.795181,-0.12854 0.795181,-0.28563 z m 8.56947,-5.37302 c 0,-0.82779 -0.639499,-1.61545 -1.425382,-1.75562 -1.043562,-0.18614 -1.284938,0.0847 -0.901092,1.01114 0.394158,0.95131 0.14024,1.19753 -1.023038,0.99203 -2.155399,-0.38078 -2.359356,-3.08643 -0.359043,-4.76299 1.861715,-1.56042 2.158606,-2.67566 0.712294,-2.67566 -2.050082,0 -3.940928,2.5344 -3.940928,5.28224 0,3.48862 0.474143,3.91404 4.051532,3.63517 2.253416,-0.17565 2.885657,-0.55389 2.885657,-1.72631 z m 4.488771,-4.16763 c 0,-0.41573 -0.367264,-0.75587 -0.816139,-0.75587 -0.448878,0 -0.816142,0.34014 -0.816142,0.75587 0,0.41573 0.367264,0.75587 0.816142,0.75587 0.448875,0 0.816139,-0.34014 0.816139,-0.75587 z M 77.63127,147.84579 c 0.534466,-0.59644 0.854885,-2.2121 0.712038,-3.59037 -0.200321,-1.93281 -0.679705,-2.56119 -2.096036,-2.74749 -2.275786,-0.29933 -2.385112,-1.38493 -0.204036,-2.02606 2.240096,-0.65846 2.085952,-2.64839 -0.204033,-2.63395 -3.392837,0.0214 -5.508948,2.66068 -5.508948,6.87098 0,4.26109 4.766445,6.95532 7.301015,4.12689 z m 18.139098,-0.16652 c 1.813229,-1.51977 1.99058,-5.4552 0.268298,-5.95352 -4.073086,-1.1785 -4.150377,-1.26339 -1.836313,-2.01693 2.916053,-0.94958 2.959072,-2.87248 0.06427,-2.87248 -3.577106,0 -5.16514,1.96488 -5.16514,6.39085 0,2.13892 0.440716,4.29711 0.979367,4.79598 1.382099,1.28003 3.936205,1.12565 5.689523,-0.3439 z m -41.387275,-0.82769 c 0.524069,-1.25978 0.588455,-1.25978 1.352083,0 1.315217,2.16975 3.036322,1.50978 3.942348,-1.51174 0.46747,-1.55897 0.851996,-3.42974 0.854501,-4.15726 0.0052,-1.51461 -2.069281,-1.79623 -2.783928,-0.37794 -0.380866,0.75587 -0.571299,0.75587 -0.952164,0 -0.68737,-1.36416 -2.576516,-1.16071 -3.509177,0.37794 -0.763629,1.25978 -0.828014,1.25978 -1.352083,0 -0.30265,-0.72753 -1.102748,-1.32277 -1.777994,-1.32277 -0.971035,0 -1.114317,0.59262 -0.685308,2.8345 0.896339,4.68402 1.313442,5.48003 2.871486,5.48003 0.819478,0 1.737586,-0.59524 2.040236,-1.32276 z m 12.867575,-2.84394 c 1.223925,-2.07345 2.233897,-4.53522 2.244383,-5.4706 0.01726,-1.53928 -0.368241,-1.7007 -4.061633,-1.7007 -3.083196,0 -4.080702,0.27715 -4.080702,1.1338 0,0.75587 0.816142,1.1338 2.44842,1.1338 1.346632,0 2.44842,0.18138 2.44842,0.40306 0,0.22168 -0.918159,2.08115 -2.040351,4.13214 -2.426119,4.43414 -2.466199,4.72173 -0.612102,4.39223 0.785534,-0.13962 2.429638,-1.95028 3.653565,-4.02373 z m 18.164432,0.41249 c 1.129753,-2.0648 2.054097,-4.61586 2.054097,-5.669 0,-1.76547 -0.286398,-1.91479 -3.67263,-1.91479 -2.720466,0 -3.67263,0.29395 -3.67263,1.1338 0,0.62359 0.459079,1.139 1.020176,1.14537 2.824512,0.032 3.237323,1.23942 1.501311,4.39099 -2.020457,3.66793 -2.126469,4.66784 -0.494887,4.66784 0.665757,0 2.134807,-1.68939 3.264563,-3.75421 z"
       id="path48" />
    <path
       style="fill:#782121;stroke-width:2.85714"
       d="m 388.93046,592.21623 c 0.19746,-123.79036 1.16175,-243.35029 2.14286,-265.68874 l 1.78382,-40.61538 95.33095,63.94632 c 52.43202,35.17048 96.40014,65.01882 97.70694,66.32966 1.3068,1.31084 2.76501,64.97186 3.24048,141.46894 L 590,696.74263 l -17.14286,10.13334 -17.14285,10.13334 -1.80482,-7.79037 c -0.99265,-4.28471 -1.95693,-13.38177 -2.14286,-20.21571 -0.4887,-17.96306 -7.95503,-31.38094 -22.64608,-40.69772 -32.55308,-20.64457 -72.10739,-9.17228 -85.02866,24.66158 -12.70347,33.26357 8.9452,64.17577 44.94404,64.17577 15.03577,0 17.83968,-0.98735 27.22235,-9.58595 9.35076,-8.56931 10.59032,-11.3866 11.68824,-26.56517 1.09754,-15.17337 0.41806,-17.94203 -6.38854,-26.0312 -12.04887,-14.31928 -34.82107,-15.98314 -47.34492,-3.45928 -3.91884,3.91883 -5.64161,9.50545 -5.64161,18.29465 0,16.63326 5.5646,22.19786 21.06548,21.06549 11.0107,-0.80434 11.85106,-1.47769 12.68844,-10.16677 0.63135,-6.5512 -0.48254,-9.83463 -3.76348,-11.09366 -6.54939,-2.51323 -12.81571,4.02997 -7.18949,7.50717 3.55742,2.1986 3.44178,2.86843 -0.77455,4.48637 -6.40239,2.45683 -13.46715,-3.45894 -13.41122,-11.23005 0.0601,-8.35003 3.07304,-12.37546 11.72471,-15.66483 10.26648,-3.90332 19.86875,1.42551 26.32399,14.60863 5.07565,10.36568 5.07565,11.0168 0,21.35088 -3.68389,7.50046 -8.37377,11.83483 -15.82615,14.62646 -13.46797,5.04503 -22.76883,2.66343 -35.63083,-9.12371 -8.51598,-7.80432 -10.43242,-11.73526 -11.44804,-23.48198 -2.17616,-25.16962 16.1798,-44.07705 42.8116,-44.0978 23.63045,-0.0171 40.41224,13.11038 46.27555,36.20246 6.65612,26.21446 -2.005,42.88623 -29.7981,57.35829 -28.97725,15.08865 -50.28795,11.76328 -69.66127,-10.87009 -10.5573,-12.33383 -16.19791,-26.25123 -16.22785,-40.03991 -0.029,-13.35106 8.67117,-36.88006 17.24957,-46.65032 9.92356,-11.30231 10.79964,-16.76837 2.48357,-15.49554 -3.68322,0.56374 -9.9397,7.32994 -16.3547,17.6872 -8.70585,14.05589 -10.56728,19.92054 -11.48658,36.1898 -1.99947,35.38566 13.11902,63.44083 40.76127,75.64014 l 14.45329,6.37863 -32.84689,21.38232 c -18.06579,11.76025 -37.02546,23.52928 -42.13261,26.1534 l -9.28571,4.77111 z m 101.92641,-41.50194 c 0.6938,-13.30208 0.014,-16.42858 -3.57143,-16.42858 -2.43556,0 -4.4283,-1.28571 -4.4283,-2.85714 0,-1.57143 1.28572,-2.85714 2.85715,-2.85714 1.57142,0 2.85714,-2.57143 2.85714,-5.71429 0,-4.14565 -1.90476,-5.71428 -6.93878,-5.71428 -11.72356,0 -15.91836,7.05588 -15.91836,26.77551 0,20.29473 3.2582,25.28937 15.70022,24.06757 8.3341,-0.8184 8.61058,-1.32413 9.44236,-17.27165 z m 54.28599,14.42857 c 5.09306,-5.09307 4.14945,-22.45083 -1.57143,-28.90674 -3.66488,-4.13574 -4.04634,-5.97598 -1.42857,-6.89164 1.96428,-0.68708 3.57143,-3.71353 3.57143,-6.72543 0,-4.16546 -2.02753,-5.47619 -8.47091,-5.47619 -10.9978,0 -14.38624,6.55069 -14.38624,27.81217 0,17.81556 3.15807,23.6164 12.85715,23.6164 3.3,0 7.54285,-1.54286 9.42857,-3.42857 z m -128,-2.63556 c 0,-2.21573 1.32467,-2.1076 4.28571,0.34984 7.56833,6.28115 12.85714,-1.50215 12.85714,-18.92127 0,-15.53559 -1.76577,-18.1701 -8,-11.93587 -2.66666,2.66667 -3.42857,2.66667 -3.42857,0 0,-4.57203 -11.36515,-4.43272 -11.65413,0.14286 -0.18045,2.85714 -0.51379,2.85714 -1.66667,0 -0.79261,-1.96429 -3.26253,-3.57143 -5.48872,-3.57143 -4.80892,0 -5.58863,18.43199 -1.26119,29.814 2.7877,7.3322 14.35643,10.65371 14.35643,4.12187 z m 35.32999,-3.22159 c 3.96069,-6.31308 8.16839,-18.73816 11.61069,-34.28571 1.71785,-7.75885 1.56023,-7.85714 -12.60053,-7.85714 -10.54225,0 -14.34015,1.08405 -14.34015,4.09317 0,2.25125 2.57143,4.90932 5.71428,5.90683 6.83138,2.16819 7.15121,6.74448 1.42857,20.44069 C 441.92857,553.22499 440,559.61226 440,561.7775 c 0,6.19924 8.02625,4.59579 12.47285,-2.49179 z m 60.48782,-8.57142 c 3.84093,-8.25 6.99607,-19.17858 7.01142,-24.28572 0.0274,-9.10466 -0.22278,-9.28571 -12.82923,-9.28571 -9.85951,0 -12.85715,1.06157 -12.85715,4.5532 0,2.50425 2.57143,5.22564 5.71429,6.04751 6.84662,1.79044 6.90007,2.46284 1.42857,17.97072 -5.43462,15.40336 -5.40441,20 0.13146,20 2.53708,0 7.38955,-6.38447 11.40066,-15 z"
       id="path50"
       transform="scale(0.26458333)" />
  </g>
</svg>
